<?xml version="1.0" encoding="UTF-8"?>
<svg id="Layer_1" xmlns="http://www.w3.org/2000/svg" version="1.1" viewBox="0 0 512 512">
  <!-- Generator: Adobe Illustrator 29.3.0, SVG Export Plug-In . SVG Version: 2.1.0 Build 146)  -->
  <defs>
    <style>
      .st0 {
        fill: #113f8c;
      }
    </style>
  </defs>
  <path class="st0" d="M0,170.7v-21.3C0,90.5,47.9,42.7,106.7,42.7h21.3v-21.3c0-11.8,9.5-21.3,21.3-21.3s21.3,9.6,21.3,21.3v21.3h170.7v-21.3c0-11.8,9.5-21.3,21.3-21.3s21.3,9.6,21.3,21.3v21.3h21.3c58.8,0,106.7,47.9,106.7,106.7v21.3H0ZM512,213.3v192c0,58.8-47.9,106.7-106.7,106.7H106.7c-58.8,0-106.7-47.9-106.7-106.7v-192h512ZM256,405.3c0-11.8-9.5-21.3-21.3-21.3h-106.7c-11.8,0-21.3,9.6-21.3,21.3s9.5,21.3,21.3,21.3h106.7c11.8,0,21.3-9.6,21.3-21.3ZM405.3,320c0-11.8-9.5-21.3-21.3-21.3H128c-11.8,0-21.3,9.6-21.3,21.3s9.5,21.3,21.3,21.3h256c11.8,0,21.3-9.6,21.3-21.3Z"/>
</svg>