<?xml version="1.0" encoding="UTF-8"?>
<svg id="Outline" xmlns="http://www.w3.org/2000/svg" version="1.1" viewBox="0 0 512 512">
  <!-- Generator: Adobe Illustrator 29.3.0, SVG Export Plug-In . SVG Version: 2.1.0 Build 146)  -->
  <defs>
    <style>
      .st0 {
        fill: #113f8c;
      }
    </style>
  </defs>
  <path class="st0" d="M256,0C114.6,0,0,114.6,0,256s114.6,256,256,256,256-114.6,256-256C511.8,114.7,397.3.2,256,0ZM440.5,149.3h-68.7c-15.4-35.6-35.6-69-60.2-99.1,54.3,14.8,100.6,50.4,128.9,99.1ZM352,256c-.2,21.7-3.6,43.3-10.2,64h-171.7c-6.6-20.7-10-42.3-10.2-64,.2-21.7,3.6-43.3,10.2-64h171.7c6.6,20.7,10,42.3,10.2,64ZM187.3,362.7h137.5c-18.1,35.7-41.3,68.7-68.7,97.9-27.5-29.2-50.6-62.1-68.7-97.9ZM187.3,149.3c18.1-35.7,41.3-68.7,68.7-97.9,27.5,29.2,50.6,62.1,68.7,97.9h-137.5ZM200.5,50.3c-24.6,30.1-44.9,63.4-60.3,99.1h-68.7c28.3-48.7,74.6-84.3,129-99.1ZM52.5,192h73.4c-5.5,20.9-8.4,42.4-8.5,64,.1,21.6,3,43.1,8.5,64H52.5c-13.1-41.7-13.1-86.3,0-128ZM71.5,362.7h68.7c15.4,35.7,35.7,69,60.3,99.1-54.4-14.8-100.7-50.4-129-99.1ZM311.6,461.7c24.5-30.1,44.8-63.4,60.2-99.1h68.7c-28.3,48.7-74.6,84.3-128.9,99.1h0ZM459.5,320h-73.4c5.5-20.9,8.4-42.4,8.5-64-.1-21.6-3-43.1-8.5-64h73.3c13.1,41.7,13.1,86.3,0,128h0Z"/>
</svg>